<?xml version="1.0" encoding="UTF-8"?>
<svg xmlns="http://www.w3.org/2000/svg" xmlns:xlink="http://www.w3.org/1999/xlink" width="70" zoomAndPan="magnify" viewBox="0 0 375 374.999991" height="70" preserveAspectRatio="xMidYMid meet" version="1.0">
	<path fill="rgb(62.748718%, 39.99939%, 79.60968%)" d="M 162.664062 145.96875 C 161.183594 141.601562 160.917969 136.890625 160.992188 132.296875 C 161.105469 124.207031 165.394531 109.433594 176.703125 113.15625 C 185.886719 116.195312 192.679688 132.296875 192.984375 140.917969 C 193.136719 145.550781 191.734375 150.375 188.546875 153.792969 C 184.179688 158.425781 176.589844 159.679688 171.011719 156.601562 C 166.949219 154.4375 164.144531 150.335938 162.664062 145.96875 Z M 216.816406 158.578125 C 221.335938 163.097656 228.960938 163.589844 234.542969 160.476562 C 240.121094 157.363281 243.648438 151.285156 244.710938 144.980469 C 246.191406 136.171875 243.496094 117.183594 232.871094 114.410156 C 221.449219 111.410156 212 120.144531 210.214844 130.777344 C 209 138.144531 209.988281 145.855469 213.023438 152.691406 C 214.011719 154.816406 215.1875 156.90625 216.816406 158.578125 Z M 268.46875 160.019531 C 254.578125 158.234375 250.9375 177.109375 254.3125 186.71875 C 255.566406 190.210938 257.765625 193.746094 261.335938 194.730469 C 262.699219 195.113281 264.144531 195.074219 265.507812 194.882812 C 270.820312 194.199219 275.90625 191.390625 278.980469 187.023438 C 285.207031 178.25 280.15625 161.539062 268.46875 160.019531 Z M 243.230469 210.949219 C 234.769531 203.503906 225.355469 196.515625 220.308594 186.453125 C 219.171875 184.175781 218.261719 181.707031 216.78125 179.617188 C 212.226562 173.121094 202.625 171.71875 195.339844 173.238281 C 186.609375 175.058594 178.980469 180.640625 172.945312 187.058594 C 165.320312 195.226562 159.589844 204.949219 152.265625 213.378906 C 148.582031 217.59375 144.445312 221.542969 141.941406 226.519531 C 138.488281 233.390625 138.5625 241.863281 141.902344 248.8125 C 145.28125 255.722656 151.769531 261.003906 159.210938 263.054688 C 167.746094 265.40625 176.816406 263.660156 185.355469 261.304688 C 193.894531 258.953125 202.398438 256.027344 211.238281 255.988281 C 219.96875 255.949219 228.46875 258.761719 237.160156 259.140625 C 245.851562 259.519531 255.753906 256.558594 259.511719 248.699219 C 260.992188 245.621094 261.335938 242.128906 260.992188 238.746094 C 259.890625 227.542969 251.695312 218.390625 243.230469 210.949219 Z M 243.230469 210.949219 " fill-opacity="1" fill-rule="nonzero"/>
	<path fill="rgb(70.588684%, 99.609375%, 90.589905%)" d="M 208.582031 127.550781 C 209.304688 127.816406 210.0625 128.121094 210.785156 128.421875 C 218.148438 131.5 220.15625 143.804688 223.992188 150.753906 C 227.101562 156.335938 232.832031 154.929688 232.53125 161.386719 C 232.378906 164.578125 232.035156 167.769531 231.582031 170.882812 C 230.40625 179.390625 228.925781 187.820312 227.140625 196.210938 C 226.875 197.503906 215.148438 196.933594 214.84375 198.226562 C 212.113281 210.1875 209.722656 211.59375 200.042969 219.113281 C 192.1875 225.226562 190.554688 222.988281 180.6875 224.429688 C 168.394531 226.253906 164.445312 235.328125 152.984375 230.507812 C 150.972656 229.671875 141.183594 238.214844 139.324219 237.078125 C 134.769531 234.191406 130.671875 230.507812 126.648438 226.898438 C 120.195312 221.085938 113.742188 215.277344 107.292969 209.464844 C 102.929688 205.480469 98.449219 201.378906 95.566406 196.210938 C 89.457031 185.199219 91.734375 171.222656 97.425781 159.980469 C 109.796875 135.5625 136.058594 123.371094 163.15625 121.320312 C 170.9375 120.714844 175.414062 143.160156 186.457031 122.003906 C 194.199219 123.070312 201.675781 124.929688 208.582031 127.550781 Z M 208.582031 127.550781 " fill-opacity="1" fill-rule="evenodd"/>
	<path fill="rgb(52.549744%, 78.039551%, 92.939758%)" d="M 132.796875 199.480469 C 127.101562 195.871094 122.472656 190.402344 120.460938 183.945312 C 118.449219 177.488281 119.207031 170.121094 122.964844 164.539062 C 126.304688 159.601562 133.742188 154.097656 139.398438 158.464844 C 144.558594 162.449219 148.582031 171.679688 150.253906 177.71875 C 151.847656 183.566406 152.074219 189.832031 150.253906 195.605469 C 149.757812 197.085938 149.152344 198.566406 148.128906 199.746094 C 146.269531 201.832031 143.308594 202.667969 140.539062 202.441406 C 137.765625 202.175781 135.148438 200.960938 132.796875 199.480469 Z M 145.167969 240.113281 C 156.628906 244.9375 169.683594 243.230469 181.980469 241.40625 C 191.847656 239.960938 202.167969 238.292969 210.023438 232.175781 C 219.703125 224.65625 223.613281 212.011719 226.34375 200.046875 C 226.648438 198.796875 226.914062 197.503906 227.179688 196.210938 C 224.523438 193.25 222.132812 190.058594 220.347656 186.453125 C 219.210938 184.175781 218.296875 181.707031 216.816406 179.617188 C 212.265625 173.121094 202.664062 171.71875 195.375 173.238281 C 186.648438 175.058594 179.019531 180.640625 172.984375 187.058594 C 165.355469 195.226562 159.625 204.949219 152.300781 213.378906 C 148.621094 217.59375 144.484375 221.542969 141.980469 226.519531 C 140.347656 229.785156 139.511719 233.429688 139.4375 237.078125 C 141.21875 238.214844 143.117188 239.277344 145.167969 240.113281 Z M 192.949219 140.957031 C 192.796875 135.828125 190.328125 128.121094 186.457031 122.042969 C 178.828125 121.019531 170.972656 120.75 163.15625 121.359375 C 161.675781 125.042969 160.992188 129.183594 160.953125 132.335938 C 160.878906 136.96875 161.144531 141.640625 162.625 146.007812 C 164.105469 150.375 166.914062 154.4375 170.972656 156.640625 C 176.550781 159.679688 184.144531 158.464844 188.507812 153.828125 C 191.695312 150.414062 193.097656 145.589844 192.949219 140.957031 Z M 232.53125 161.386719 C 232.796875 154.929688 232.113281 148.511719 229.039062 142.929688 C 225.167969 136.019531 218.148438 131.539062 210.785156 128.421875 C 210.554688 129.183594 210.40625 129.941406 210.253906 130.738281 C 209.039062 138.109375 210.023438 145.816406 213.0625 152.652344 C 214.011719 154.78125 215.1875 156.867188 216.816406 158.539062 C 220.804688 162.566406 227.253906 163.398438 232.53125 161.386719 Z M 232.53125 161.386719 " fill-opacity="1" fill-rule="nonzero"/>
	<path fill="rgb(9.408569%, 21.179199%, 69.799805%)" d="M 259.132812 192.261719 C 257.578125 192.261719 256.097656 191.921875 254.808594 191.277344 C 249.796875 188.730469 248.46875 182.160156 248.925781 176.84375 C 249.378906 171.679688 251.429688 161.957031 256.324219 158.347656 C 258.109375 157.058594 260.082031 156.640625 262.246094 157.132812 C 266.722656 158.121094 271.46875 162.03125 274.277344 167.046875 C 276.515625 171.035156 277.160156 175.058594 276.058594 178.324219 C 274.464844 183.074219 271.089844 187.289062 266.835938 189.910156 C 264.257812 191.464844 261.601562 192.261719 259.132812 192.261719 Z M 260.539062 158.046875 C 259.246094 158.046875 258.070312 158.464844 256.96875 159.261719 C 252.378906 162.640625 250.441406 171.945312 250.023438 176.957031 C 249.609375 181.894531 250.785156 188.007812 255.300781 190.25 C 258.296875 191.769531 262.398438 191.277344 266.191406 188.882812 C 270.214844 186.414062 273.402344 182.390625 274.921875 177.90625 C 275.90625 174.945312 275.339844 171.261719 273.25 167.539062 C 270.632812 162.867188 266.078125 159.109375 261.980469 158.160156 C 261.488281 158.121094 261.03125 158.046875 260.539062 158.046875 Z M 131.011719 197.578125 C 130.101562 197.578125 129.152344 197.464844 128.277344 197.238281 C 126.496094 196.746094 124.710938 195.796875 122.964844 194.3125 C 118.03125 190.175781 115.074219 183.453125 115.074219 176.351562 C 115.074219 170.804688 117.160156 160.398438 122.777344 156.03125 C 124.21875 154.894531 125.773438 154.4375 127.367188 154.703125 C 131.390625 155.3125 134.769531 160.171875 137.234375 163.742188 C 137.539062 164.160156 137.804688 164.539062 138.03125 164.917969 C 141.335938 169.550781 143.308594 173.84375 144.105469 178.023438 C 145.089844 183.261719 144.105469 188.425781 141.410156 192.148438 C 138.90625 195.527344 134.921875 197.578125 131.011719 197.578125 Z M 126.535156 155.765625 C 125.507812 155.765625 124.484375 156.148438 123.496094 156.945312 C 118.792969 160.628906 116.25 169.667969 116.25 176.351562 C 116.25 183.109375 119.058594 189.527344 123.726562 193.441406 C 125.320312 194.769531 126.949219 195.679688 128.582031 196.136719 C 132.796875 197.277344 137.691406 195.339844 140.5 191.425781 C 143.042969 187.933594 143.914062 183.109375 143.003906 178.171875 C 142.246094 174.148438 140.308594 170.007812 137.121094 165.527344 C 136.855469 165.148438 136.589844 164.765625 136.285156 164.351562 C 133.933594 160.96875 130.707031 156.335938 127.214844 155.804688 C 126.988281 155.765625 126.761719 155.765625 126.535156 155.765625 Z M 170.214844 259.253906 C 168.8125 259.253906 167.445312 259.179688 166.039062 258.988281 C 155.753906 257.546875 146.304688 249.835938 142.585938 239.734375 C 138.980469 229.9375 140.574219 218.316406 146.800781 209.464844 L 147.253906 209.808594 L 146.800781 209.464844 C 150.671875 203.960938 155.984375 199.746094 161.144531 195.679688 C 162.28125 194.808594 163.421875 193.894531 164.558594 192.984375 C 167.40625 190.667969 169.949219 188.007812 172.414062 185.464844 C 173.894531 183.90625 175.453125 182.3125 177.046875 180.757812 C 186.875 171.414062 203.535156 167.121094 216.363281 176.996094 C 221.03125 180.605469 224.410156 185.578125 227.671875 190.402344 C 229.113281 192.527344 230.59375 194.730469 232.1875 196.78125 C 234.464844 199.746094 237.046875 202.554688 239.589844 205.25 C 243.082031 209.011719 246.6875 212.921875 249.53125 217.328125 C 253.894531 224.125 257.160156 234.949219 251.960938 243.265625 C 246.382812 252.191406 234.425781 253.214844 229.53125 253.253906 C 225.964844 253.292969 222.320312 252.949219 218.828125 252.648438 C 214.160156 252.230469 209.304688 251.773438 204.597656 252.191406 C 199.324219 252.648438 194.085938 254.203125 189 255.683594 C 182.851562 257.433594 176.589844 259.253906 170.214844 259.253906 Z M 147.785156 210.113281 C 141.789062 218.695312 140.234375 229.898438 143.726562 239.355469 C 147.292969 249.039062 156.363281 256.484375 166.230469 257.851562 C 173.78125 258.914062 180.992188 256.785156 188.660156 254.546875 C 193.78125 253.066406 199.09375 251.507812 204.484375 251.015625 C 209.304688 250.597656 214.199219 251.050781 218.945312 251.46875 C 222.433594 251.773438 226.003906 252.117188 229.53125 252.078125 C 234.238281 252.039062 245.699219 251.050781 251.011719 242.621094 C 255.90625 234.796875 252.796875 224.429688 248.582031 217.9375 C 245.8125 213.605469 242.207031 209.769531 238.753906 206.011719 C 236.210938 203.277344 233.59375 200.464844 231.316406 197.464844 C 229.722656 195.378906 228.203125 193.175781 226.761719 191.011719 C 223.574219 186.261719 220.234375 181.363281 215.71875 177.871094 C 203.382812 168.375 187.367188 172.515625 177.878906 181.554688 C 176.285156 183.074219 174.769531 184.667969 173.289062 186.226562 C 170.820312 188.808594 168.242188 191.464844 165.355469 193.859375 C 164.21875 194.769531 163.078125 195.679688 161.941406 196.59375 C 156.78125 200.582031 151.542969 204.71875 147.785156 210.113281 Z M 219.359375 159.980469 C 213.859375 159.980469 209.078125 155.804688 206.949219 151.210938 C 204.292969 145.550781 204.710938 139.058594 205.320312 134.082031 C 206.152344 127.398438 208.242188 118.664062 213.289062 114.75 C 215.375 113.15625 217.84375 112.511719 220.574219 112.890625 C 224.597656 113.460938 228.734375 116.269531 232.1875 120.867188 C 235.261719 124.929688 237.386719 129.789062 237.882812 133.929688 C 238.679688 140.386719 236.019531 147.5625 230.59375 153.714844 C 227.445312 157.285156 224.332031 159.296875 221.105469 159.832031 C 220.539062 159.90625 219.929688 159.980469 219.359375 159.980469 Z M 206.417969 134.195312 C 205.8125 139.058594 205.433594 145.324219 207.9375 150.714844 C 210.101562 155.386719 215.300781 159.640625 220.917969 158.691406 C 223.878906 158.199219 226.761719 156.296875 229.722656 152.957031 C 234.921875 147.070312 237.464844 140.195312 236.703125 134.082031 C 235.832031 126.867188 228.847656 115.207031 220.347656 114.03125 C 217.917969 113.6875 215.753906 114.257812 213.933594 115.664062 C 208.960938 119.5 207.101562 128.917969 206.417969 134.195312 Z M 166.648438 154.894531 C 164.066406 154.894531 161.449219 154.363281 159.058594 152.996094 C 151.011719 148.171875 151.503906 136.777344 151.808594 133.398438 L 152.378906 133.4375 L 151.808594 133.398438 C 152.605469 125.386719 156.550781 115.511719 163.269531 112.777344 C 167.179688 111.179688 171.390625 112.28125 175.792969 116.042969 C 181.449219 120.867188 187.292969 129.335938 187.597656 137.386719 C 187.785156 141.828125 186.269531 145.664062 183.15625 148.777344 C 181.21875 150.714844 178.601562 152.195312 174.921875 153.414062 C 172.566406 154.171875 169.644531 154.894531 166.648438 154.894531 Z M 166.800781 113.230469 C 165.738281 113.230469 164.710938 113.421875 163.6875 113.839844 C 157.691406 116.269531 153.746094 125.574219 152.945312 133.511719 C 152.644531 136.703125 152.1875 147.527344 159.664062 151.96875 C 164.410156 154.78125 170.367188 153.714844 174.578125 152.3125 C 178.070312 151.132812 180.539062 149.765625 182.359375 147.945312 C 185.242188 145.058594 186.609375 141.527344 186.457031 137.386719 C 186.152344 129.675781 180.5 121.550781 175.035156 116.878906 C 172.1875 114.484375 169.417969 113.230469 166.800781 113.230469 Z M 166.800781 113.230469 " fill-opacity="1" fill-rule="nonzero"/>
</svg>