<?xml version="1.0" encoding="UTF-8"?><svg xmlns="http://www.w3.org/2000/svg" xmlns:xlink="http://www.w3.org/1999/xlink" width="375" zoomAndPan="magnify" viewBox="0 0 375 374.999991" height="374.999991" preserveAspectRatio="xMidYMid meet" version="1.0"><defs><clipPath id="clip-0"><path d="M 144 150 L 262.5 150 L 262.5 218 L 144 218 Z M 144 150 " clip-rule="nonzero"/></clipPath><clipPath id="clip-1"><path d="M 134 114.84375 L 164 114.84375 L 164 218 L 134 218 Z M 134 114.84375 " clip-rule="nonzero"/></clipPath><clipPath id="clip-2"><path d="M 114 114.84375 L 137 114.84375 L 137 118 L 114 118 Z M 114 114.84375 " clip-rule="nonzero"/></clipPath><clipPath id="clip-3"><path d="M 112.5 114.84375 L 118 114.84375 L 118 123 L 112.5 123 Z M 112.5 114.84375 " clip-rule="nonzero"/></clipPath><clipPath id="clip-4"><path d="M 161 247 L 181 247 L 181 260.34375 L 161 260.34375 Z M 161 247 " clip-rule="nonzero"/></clipPath><clipPath id="clip-5"><path d="M 222 247 L 242 247 L 242 260.34375 L 222 260.34375 Z M 222 247 " clip-rule="nonzero"/></clipPath></defs><g clip-path="url(#clip-0)"><path fill="rgb(0%, 0%, 0%)" d="M 162.785156 217.824219 C 162.175781 217.824219 161.664062 217.355469 161.617188 216.742188 C 161.570312 216.09375 162.054688 215.53125 162.699219 215.484375 L 250.859375 208.84375 L 259.867188 152.496094 L 145.316406 152.496094 C 144.667969 152.496094 144.144531 151.96875 144.144531 151.320312 C 144.144531 150.675781 144.667969 150.148438 145.316406 150.148438 L 261.238281 150.148438 C 261.582031 150.148438 261.90625 150.300781 262.128906 150.5625 C 262.351562 150.824219 262.449219 151.167969 262.394531 151.507812 L 253.027344 210.128906 C 252.941406 210.664062 252.5 211.074219 251.957031 211.113281 L 162.875 217.820312 C 162.84375 217.824219 162.8125 217.824219 162.785156 217.824219 Z M 162.785156 217.824219 " fill-opacity="1" fill-rule="nonzero"/></g><path fill="rgb(0%, 0%, 0%)" d="M 158.195312 218.152344 C 157.679688 218.152344 157.207031 217.808594 157.066406 217.28125 L 131.304688 121.140625 C 131.136719 120.515625 131.507812 119.875 132.132812 119.707031 C 132.757812 119.542969 133.402344 119.910156 133.566406 120.535156 L 159.328125 216.675781 C 159.496094 217.300781 159.125 217.941406 158.5 218.113281 C 158.398438 218.140625 158.296875 218.152344 158.195312 218.152344 Z M 158.195312 218.152344 " fill-opacity="1" fill-rule="nonzero"/><g clip-path="url(#clip-1)"><path fill="rgb(0%, 0%, 0%)" d="M 162.785156 217.828125 C 162.269531 217.828125 161.796875 217.484375 161.65625 216.960938 L 134.632812 116.453125 C 134.464844 115.828125 134.835938 115.183594 135.460938 115.015625 C 136.085938 114.847656 136.726562 115.21875 136.894531 115.84375 L 163.917969 216.351562 C 164.085938 216.976562 163.714844 217.621094 163.089844 217.789062 C 162.988281 217.816406 162.886719 217.828125 162.785156 217.828125 Z M 162.785156 217.828125 " fill-opacity="1" fill-rule="nonzero"/></g><path fill="rgb(0%, 0%, 0%)" d="M 132.4375 122.011719 L 116.042969 122.011719 C 115.398438 122.011719 114.871094 121.488281 114.871094 120.839844 C 114.871094 120.191406 115.398438 119.667969 116.042969 119.667969 L 132.4375 119.667969 C 133.082031 119.667969 133.609375 120.191406 133.609375 120.839844 C 133.609375 121.488281 133.082031 122.011719 132.4375 122.011719 Z M 132.4375 122.011719 " fill-opacity="1" fill-rule="nonzero"/><g clip-path="url(#clip-2)"><path fill="rgb(0%, 0%, 0%)" d="M 135.765625 117.320312 L 116.042969 117.320312 C 115.398438 117.320312 114.871094 116.796875 114.871094 116.148438 C 114.871094 115.5 115.398438 114.976562 116.042969 114.976562 L 135.765625 114.976562 C 136.410156 114.976562 136.933594 115.5 136.933594 116.148438 C 136.933594 116.796875 136.410156 117.320312 135.765625 117.320312 Z M 135.765625 117.320312 " fill-opacity="1" fill-rule="nonzero"/></g><g clip-path="url(#clip-3)"><path fill="rgb(0%, 0%, 0%)" d="M 116.042969 122.011719 C 114.105469 122.011719 112.53125 120.433594 112.53125 118.492188 C 112.53125 116.554688 114.105469 114.976562 116.042969 114.976562 C 116.691406 114.976562 117.214844 115.5 117.214844 116.148438 C 117.214844 116.796875 116.691406 117.320312 116.042969 117.320312 C 115.398438 117.320312 114.871094 117.847656 114.871094 118.492188 C 114.871094 119.140625 115.398438 119.667969 116.042969 119.667969 C 116.691406 119.667969 117.214844 120.191406 117.214844 120.839844 C 117.214844 121.488281 116.691406 122.011719 116.042969 122.011719 Z M 116.042969 122.011719 " fill-opacity="1" fill-rule="nonzero"/></g><path fill="rgb(0%, 0%, 0%)" d="M 251.871094 166.5625 L 156.65625 166.5625 C 156.007812 166.5625 155.484375 166.039062 155.484375 165.390625 C 155.484375 164.742188 156.007812 164.21875 156.65625 164.21875 L 251.871094 164.21875 C 252.519531 164.21875 253.042969 164.742188 253.042969 165.390625 C 253.042969 166.039062 252.519531 166.5625 251.871094 166.5625 Z M 251.871094 166.5625 " fill-opacity="1" fill-rule="nonzero"/><path fill="rgb(0%, 0%, 0%)" d="M 247.1875 182.976562 L 163.679688 182.976562 C 163.035156 182.976562 162.511719 182.453125 162.511719 181.804688 C 162.511719 181.15625 163.035156 180.632812 163.679688 180.632812 L 247.1875 180.632812 C 247.835938 180.632812 248.359375 181.15625 248.359375 181.804688 C 248.359375 182.453125 247.835938 182.976562 247.1875 182.976562 Z M 247.1875 182.976562 " fill-opacity="1" fill-rule="nonzero"/><path fill="rgb(0%, 0%, 0%)" d="M 242.503906 199.390625 L 168.363281 199.390625 C 167.71875 199.390625 167.195312 198.867188 167.195312 198.21875 C 167.195312 197.570312 167.71875 197.046875 168.363281 197.046875 L 242.503906 197.046875 C 243.152344 197.046875 243.675781 197.570312 243.675781 198.21875 C 243.675781 198.867188 243.152344 199.390625 242.503906 199.390625 Z M 242.503906 199.390625 " fill-opacity="1" fill-rule="nonzero"/><path fill="rgb(0%, 0%, 0%)" d="M 155.855469 232.21875 C 155.683594 232.21875 155.511719 232.183594 155.347656 232.105469 C 154.765625 231.824219 154.519531 231.125 154.800781 230.539062 L 161.734375 216.148438 C 162.011719 215.566406 162.714844 215.324219 163.296875 215.601562 C 163.878906 215.882812 164.121094 216.582031 163.839844 217.167969 L 156.910156 231.558594 C 156.707031 231.976562 156.289062 232.21875 155.855469 232.21875 Z M 155.855469 232.21875 " fill-opacity="1" fill-rule="nonzero"/><path fill="rgb(0%, 0%, 0%)" d="M 151.21875 232.21875 C 151.046875 232.21875 150.875 232.183594 150.710938 232.105469 C 150.128906 231.824219 149.882812 231.125 150.164062 230.539062 L 157.097656 216.148438 C 157.375 215.566406 158.078125 215.324219 158.660156 215.601562 C 159.242188 215.882812 159.484375 216.582031 159.203125 217.167969 L 152.273438 231.558594 C 152.070312 231.976562 151.652344 232.21875 151.21875 232.21875 Z M 151.21875 232.21875 " fill-opacity="1" fill-rule="nonzero"/><path fill="rgb(0%, 0%, 0%)" d="M 247.1875 241.601562 L 162.882812 241.601562 C 162.234375 241.601562 161.710938 241.074219 161.710938 240.425781 C 161.710938 239.777344 162.234375 239.253906 162.882812 239.253906 L 247.1875 239.253906 C 247.835938 239.253906 248.359375 239.777344 248.359375 240.425781 C 248.359375 241.074219 247.835938 241.601562 247.1875 241.601562 Z M 247.1875 241.601562 " fill-opacity="1" fill-rule="nonzero"/><path fill="rgb(0%, 0%, 0%)" d="M 247.1875 236.910156 L 162.882812 236.910156 C 162.234375 236.910156 161.710938 236.386719 161.710938 235.738281 C 161.710938 235.089844 162.234375 234.566406 162.882812 234.566406 L 247.1875 234.566406 C 247.835938 234.566406 248.359375 235.089844 248.359375 235.738281 C 248.359375 236.386719 247.835938 236.910156 247.1875 236.910156 Z M 247.1875 236.910156 " fill-opacity="1" fill-rule="nonzero"/><path fill="rgb(0%, 0%, 0%)" d="M 162.882812 241.601562 C 155.777344 241.601562 150 236.867188 150 231.046875 C 150 230.398438 150.523438 229.875 151.171875 229.875 C 151.820312 229.875 152.34375 230.398438 152.34375 231.046875 C 152.34375 235.574219 157.070312 239.253906 162.882812 239.253906 C 163.527344 239.253906 164.050781 239.777344 164.050781 240.425781 C 164.050781 241.074219 163.527344 241.601562 162.882812 241.601562 Z M 162.882812 241.601562 " fill-opacity="1" fill-rule="nonzero"/><path fill="rgb(0%, 0%, 0%)" d="M 162.882812 236.910156 C 159.011719 236.910156 154.683594 234.402344 154.683594 231.046875 C 154.683594 230.398438 155.207031 229.875 155.855469 229.875 C 156.503906 229.875 157.027344 230.398438 157.027344 231.046875 C 157.027344 232.757812 160.035156 234.566406 162.882812 234.566406 C 163.527344 234.566406 164.050781 235.089844 164.050781 235.738281 C 164.050781 236.386719 163.527344 236.910156 162.882812 236.910156 Z M 162.882812 236.910156 " fill-opacity="1" fill-rule="nonzero"/><path fill="rgb(0%, 0%, 0%)" d="M 247.1875 241.601562 C 246.539062 241.601562 246.015625 241.074219 246.015625 240.425781 C 246.015625 239.777344 246.539062 239.253906 247.1875 239.253906 C 247.832031 239.253906 248.359375 238.730469 248.359375 238.082031 C 248.359375 237.4375 247.832031 236.910156 247.1875 236.910156 C 246.539062 236.910156 246.015625 236.386719 246.015625 235.738281 C 246.015625 235.089844 246.539062 234.566406 247.1875 234.566406 C 249.125 234.566406 250.699219 236.144531 250.699219 238.082031 C 250.699219 240.023438 249.125 241.601562 247.1875 241.601562 Z M 247.1875 241.601562 " fill-opacity="1" fill-rule="nonzero"/><path fill="rgb(0%, 0%, 0%)" d="M 237.820312 204.082031 C 237.171875 204.082031 236.648438 203.558594 236.648438 202.910156 L 236.648438 160.703125 C 236.648438 160.054688 237.171875 159.527344 237.820312 159.527344 C 238.46875 159.527344 238.992188 160.054688 238.992188 160.703125 L 238.992188 202.910156 C 238.992188 203.558594 238.46875 204.082031 237.820312 204.082031 Z M 237.820312 204.082031 " fill-opacity="1" fill-rule="nonzero"/><path fill="rgb(0%, 0%, 0%)" d="M 221.425781 204.082031 C 220.78125 204.082031 220.257812 203.558594 220.257812 202.910156 L 220.257812 160.703125 C 220.257812 160.054688 220.78125 159.527344 221.425781 159.527344 C 222.074219 159.527344 222.597656 160.054688 222.597656 160.703125 L 222.597656 202.910156 C 222.597656 203.558594 222.074219 204.082031 221.425781 204.082031 Z M 221.425781 204.082031 " fill-opacity="1" fill-rule="nonzero"/><path fill="rgb(0%, 0%, 0%)" d="M 205.035156 204.082031 C 204.386719 204.082031 203.863281 203.558594 203.863281 202.910156 L 203.863281 160.703125 C 203.863281 160.054688 204.386719 159.527344 205.035156 159.527344 C 205.679688 159.527344 206.203125 160.054688 206.203125 160.703125 L 206.203125 202.910156 C 206.203125 203.558594 205.679688 204.082031 205.035156 204.082031 Z M 205.035156 204.082031 " fill-opacity="1" fill-rule="nonzero"/><path fill="rgb(0%, 0%, 0%)" d="M 188.640625 204.082031 C 187.992188 204.082031 187.46875 203.558594 187.46875 202.910156 L 187.46875 160.703125 C 187.46875 160.054688 187.992188 159.527344 188.640625 159.527344 C 189.289062 159.527344 189.8125 160.054688 189.8125 160.703125 L 189.8125 202.910156 C 189.8125 203.558594 189.289062 204.082031 188.640625 204.082031 Z M 188.640625 204.082031 " fill-opacity="1" fill-rule="nonzero"/><path fill="rgb(0%, 0%, 0%)" d="M 172.25 204.082031 C 171.601562 204.082031 171.078125 203.558594 171.078125 202.910156 L 171.078125 160.703125 C 171.078125 160.054688 171.601562 159.527344 172.25 159.527344 C 172.894531 159.527344 173.417969 160.054688 173.417969 160.703125 L 173.417969 202.910156 C 173.417969 203.558594 172.894531 204.082031 172.25 204.082031 Z M 172.25 204.082031 " fill-opacity="1" fill-rule="nonzero"/><g clip-path="url(#clip-4)"><path fill="rgb(0%, 0%, 0%)" d="M 171.078125 260.359375 C 165.914062 260.359375 161.710938 256.152344 161.710938 250.980469 C 161.710938 250.066406 161.839844 249.164062 162.097656 248.300781 C 162.285156 247.679688 162.933594 247.328125 163.554688 247.511719 C 164.175781 247.695312 164.527344 248.347656 164.34375 248.96875 C 164.148438 249.617188 164.050781 250.292969 164.050781 250.980469 C 164.050781 254.859375 167.203125 258.011719 171.078125 258.011719 C 174.953125 258.011719 178.101562 254.859375 178.101562 250.980469 C 178.101562 250.292969 178.003906 249.617188 177.8125 248.96875 C 177.628906 248.347656 177.980469 247.695312 178.601562 247.511719 C 179.222656 247.328125 179.871094 247.679688 180.054688 248.300781 C 180.3125 249.164062 180.445312 250.066406 180.445312 250.980469 C 180.445312 256.152344 176.242188 260.359375 171.078125 260.359375 Z M 171.078125 260.359375 " fill-opacity="1" fill-rule="nonzero"/></g><path fill="rgb(0%, 0%, 0%)" d="M 171.078125 254.496094 C 168.445312 254.496094 165.835938 248.324219 164.113281 243.144531 C 163.90625 242.527344 164.238281 241.867188 164.851562 241.660156 C 165.472656 241.457031 166.128906 241.789062 166.332031 242.402344 C 167.945312 247.246094 170.203125 251.808594 171.160156 252.164062 C 171.949219 251.808594 174.207031 247.246094 175.820312 242.402344 C 176.023438 241.785156 176.683594 241.453125 177.300781 241.660156 C 177.914062 241.863281 178.246094 242.527344 178.042969 243.144531 C 176.320312 248.324219 173.710938 254.496094 171.078125 254.496094 Z M 171.078125 254.496094 " fill-opacity="1" fill-rule="nonzero"/><g clip-path="url(#clip-5)"><path fill="rgb(0%, 0%, 0%)" d="M 231.964844 260.359375 C 226.800781 260.359375 222.597656 256.152344 222.597656 250.980469 C 222.597656 250.066406 222.730469 249.164062 222.988281 248.296875 C 223.175781 247.679688 223.824219 247.328125 224.445312 247.511719 C 225.0625 247.699219 225.414062 248.351562 225.234375 248.972656 C 225.039062 249.617188 224.941406 250.292969 224.941406 250.980469 C 224.941406 254.859375 228.089844 258.015625 231.964844 258.015625 C 235.839844 258.015625 238.992188 254.859375 238.992188 250.980469 C 238.992188 250.292969 238.894531 249.617188 238.699219 248.96875 C 238.515625 248.347656 238.871094 247.695312 239.488281 247.511719 C 240.117188 247.328125 240.761719 247.683594 240.945312 248.300781 C 241.203125 249.167969 241.332031 250.070312 241.332031 250.980469 C 241.332031 256.152344 237.128906 260.359375 231.964844 260.359375 Z M 231.964844 260.359375 " fill-opacity="1" fill-rule="nonzero"/></g><path fill="rgb(0%, 0%, 0%)" d="M 231.964844 254.496094 C 229.332031 254.496094 226.722656 248.324219 225 243.144531 C 224.796875 242.527344 225.128906 241.867188 225.742188 241.660156 C 226.359375 241.457031 227.015625 241.789062 227.222656 242.402344 C 228.835938 247.246094 231.09375 251.808594 232.050781 252.164062 C 232.839844 251.808594 235.097656 247.246094 236.707031 242.402344 C 236.914062 241.785156 237.574219 241.453125 238.191406 241.660156 C 238.804688 241.863281 239.136719 242.527344 238.929688 243.144531 C 237.207031 248.324219 234.601562 254.496094 231.964844 254.496094 Z M 231.964844 254.496094 " fill-opacity="1" fill-rule="nonzero"/></svg>